<?xml version="1.0" encoding="utf-8"?>
<!-- Generator: Adobe Illustrator 24.1.2, SVG Export Plug-In . SVG Version: 6.00 Build 0)  -->
<svg version="1.1" xmlns="http://www.w3.org/2000/svg" xmlns:xlink="http://www.w3.org/1999/xlink" x="0px" y="0px"
	 viewBox="0 0 288.48 288.51" style="enable-background:new 0 0 288.48 288.51;" xml:space="preserve">
<style type="text/css">
	.st0{display:none;}
	.st1{fill:#968E47;}
	.st2{fill:#B4D071;}
	.st3{fill:#75C4C2;}
	.st4{fill:#FFFFFF;}
	.st5{fill:#1F8DC5;}
</style>
<g id="Extra">
</g>
<g id="Art">
	<circle class="st4" cx="143.78" cy="144.25" r="143.78"/>
	<g>
		<g id="XMLID_128_">
			<g id="XMLID_130_">
				<path id="XMLID_173_" class="st5" d="M84.91,154.38c11.07-0.85,26.32-6.19,32.36-8.9l-8.63-17.27
					c-0.11-0.21-0.36-0.31-0.57-0.21C100.91,131.56,93.58,141.14,84.91,154.38z"/>
				<path id="XMLID_131_" class="st5" d="M144.25,263.49l-39.21-22.31c19.19-18.92,32.15-44.69,19.64-79.66
					c-26.29,9.87-39.25,11.52-58.37,6.99c1.85-17.27,10.9-53.68,58.41-76.91c3.91-3.08,18.51-21.28,10.69-35.27
					c-4.63-5.96-10.4-11.75-10.71-25.84c-0.31-14.06,7.54-28.5,19.55-28.79V0C64.62,0,0,64.62,0,144.25
					c0,79.63,64.62,144.25,144.25,144.25v-4.61c-6.38,0.07-12.5-0.26-18.36-0.92c6.25-4.67,12.37-9.02,18.36-13.1V263.49z
					 M120.82,283.31c-48.3-13.62-69.23-33.23-80.35-43.89c17.44-12.04,42.05-3.55,57.06,2.04c14.94,5.66,37.64,19.48,46.46,25.53
					L120.82,283.31z"/>
			</g>
			<path id="XMLID_129_" class="st5" d="M132.36,149.01l11.96-33c-10.34,0-18.71,8.38-18.71,18.71
				C125.61,140.48,128.27,145.57,132.36,149.01z"/>
		</g>
		<g>
			<path id="XMLID_115_" class="st3" d="M163.04,134.72c0-10.34-8.38-18.71-18.71-18.71l12.14,32.85
				C160.45,145.43,163.04,140.4,163.04,134.72z"/>
			<g id="XMLID_23_">
				<path id="XMLID_111_" class="st3" d="M144.25,0.02v1.69c0.02,0,0.04-0.01,0.07-0.01c12.05,0.23,19.93,14.71,19.62,28.8
					c-0.31,14.09-6.08,19.87-10.71,25.84c-7.81,13.98,6.79,32.18,10.69,35.27c47.51,23.24,56.55,59.64,58.41,76.91
					c-19.13,4.52-32.08,2.88-58.37-6.99c-12.51,34.96,0.45,60.74,19.64,79.66l-39.28,22.35l-0.07-0.04v6.42
					c33.03-22.61,61.44-36.21,83.91-37.43c12.13,0,16.86,4.32,19.74,6.79c-32.66,33.86-71.21,44.36-103.65,44.63v4.59
					c79.66,0,144.23-64.57,144.23-144.23S223.91,0.02,144.25,0.02z"/>
				<path id="XMLID_107_" class="st3" d="M180.57,128c-0.21-0.11-0.46-0.01-0.57,0.21l-8.63,17.27c6.04,2.71,21.29,8.05,32.36,8.9
					C195.06,141.14,187.73,131.56,180.57,128z"/>
			</g>
		</g>
	</g>
</g>
</svg>
